<?xml version="1.0" encoding="UTF-8"?>
<svg id="Capa_2" data-name="Capa 2" xmlns="http://www.w3.org/2000/svg" viewBox="0 0 571.19 121.43">
  <defs>
    <style>
      .cls-1 {
        fill: #344293;
      }

      .cls-2 {
        fill: none;
        stroke: #000;
        stroke-miterlimit: 10;
        stroke-width: 1.18px;
      }
    </style>
  </defs>
  <g id="Capa_1-2" data-name="Capa 1">
    <g>
      <path d="M354.63,12.82c0-1.6.31-3.1.92-4.51.61-1.4,1.44-2.63,2.49-3.68,1.05-1.05,2.28-1.89,3.68-2.5,1.4-.61,2.9-.92,4.51-.92h17.75v7.75h-17.75c-.54,0-1.04.1-1.51.3-.47.2-.88.47-1.23.82-.35.35-.63.76-.82,1.23-.2.47-.3.97-.3,1.51s.1,1.05.3,1.52c.2.48.47.89.82,1.24.35.35.76.62,1.23.82s.97.3,1.51.3h7.74c1.6,0,3.11.3,4.52.9,1.41.6,2.65,1.43,3.7,2.48,1.05,1.05,1.88,2.29,2.48,3.7.6,1.41.91,2.92.91,4.52s-.3,3.1-.91,4.5c-.6,1.4-1.43,2.63-2.48,3.68-1.05,1.05-2.28,1.88-3.7,2.49-1.41.61-2.92.92-4.52.92h-19.35v-7.74h19.35c.54,0,1.04-.1,1.51-.3.47-.2.88-.47,1.23-.82.35-.35.62-.76.82-1.23.2-.47.3-.97.3-1.51s-.1-1.04-.3-1.51c-.2-.47-.47-.88-.82-1.23-.35-.35-.76-.62-1.23-.82-.47-.2-.97-.3-1.51-.3h-7.74c-1.6,0-3.1-.3-4.51-.92-1.4-.61-2.63-1.44-3.68-2.49-1.05-1.05-1.88-2.28-2.49-3.7-.61-1.41-.92-2.92-.92-4.52"/>
      <path d="M429.05,39.91h-7.72V12.66c0-.53-.1-1.03-.31-1.49-.21-.46-.49-.87-.84-1.21-.35-.34-.76-.62-1.23-.81-.47-.2-.97-.29-1.51-.29s-1.04.1-1.51.29c-.47.19-.88.47-1.23.81-.35.35-.62.75-.82,1.21-.2.46-.3.96-.3,1.49v27.25h-7.74V12.66c0-.53-.1-1.03-.3-1.49-.2-.46-.47-.87-.82-1.21-.35-.34-.76-.62-1.23-.81-.47-.2-.97-.29-1.51-.29s-1.04.1-1.51.29c-.47.19-.88.47-1.23.81-.35.35-.62.75-.82,1.21-.2.46-.3.96-.3,1.49v27.25h-7.74V12.66c0-1.58.3-3.06.9-4.46.6-1.39,1.43-2.61,2.48-3.65,1.05-1.04,2.29-1.85,3.7-2.45,1.41-.6,2.92-.89,4.52-.89,1.44,0,2.82.25,4.15.76,1.33.51,2.53,1.24,3.59,2.2,1.06-.96,2.25-1.69,3.57-2.2,1.32-.51,2.7-.76,4.14-.76,1.6,0,3.11.3,4.52.89,1.41.59,2.65,1.41,3.7,2.45,1.05,1.04,1.88,2.25,2.48,3.65.6,1.39.9,2.88.9,4.46v27.25Z"/>
      <path d="M466.47,39.91h-7.74v-7.75h-15.49v7.75h-7.72v-23.2c0-2.14.4-4.15,1.21-6.03.81-1.88,1.91-3.52,3.3-4.92,1.39-1.4,3.03-2.51,4.91-3.32,1.88-.81,3.89-1.21,6.03-1.21s4.15.4,6.03,1.21c1.88.81,3.52,1.92,4.92,3.32,1.4,1.4,2.51,3.04,3.32,4.92.81,1.88,1.21,3.89,1.21,6.03v23.2ZM458.73,24.45v-7.74c0-1.06-.2-2.06-.61-3.01-.4-.94-.96-1.77-1.66-2.47-.7-.7-1.52-1.25-2.47-1.66-.94-.4-1.95-.61-3.01-.61s-2.06.2-3.01.61c-.94.4-1.77.96-2.47,1.66-.7.7-1.25,1.52-1.66,2.47-.4.95-.61,1.95-.61,3.01v7.74h15.49Z"/>
      <path d="M480.94,39.91h-7.74V1.22h15.49c1.42,0,2.79.18,4.1.55,1.31.37,2.54.89,3.68,1.56,1.14.67,2.19,1.48,3.13,2.43.95.94,1.76,1.99,2.43,3.14.67,1.15,1.2,2.38,1.56,3.69.37,1.32.55,2.68.55,4.1,0,1.33-.17,2.63-.5,3.89-.33,1.26-.81,2.46-1.43,3.59-.62,1.13-1.38,2.18-2.28,3.13-.9.95-1.91,1.78-3.02,2.48l4.29,10.12h-8.23l-3.37-7.8-8.66.05v7.75ZM480.94,8.96v15.49h7.74c1.06,0,2.06-.2,3-.61.94-.4,1.76-.96,2.46-1.66.7-.7,1.25-1.52,1.66-2.47.4-.95.61-1.95.61-3.01s-.2-2.06-.61-3.01c-.4-.95-.96-1.77-1.66-2.47s-1.52-1.25-2.46-1.66-1.93-.61-3-.61h-7.74Z"/>
      <polygon points="524.78 39.91 517.07 39.91 517.07 8.96 505.44 8.96 505.44 1.22 536.39 1.22 536.39 8.96 524.78 8.96 524.78 39.91"/>
      <path class="cls-1" d="M428.73,92.76h-7.87v-27.77c0-.54-.11-1.05-.32-1.52-.21-.47-.49-.88-.85-1.24-.36-.35-.77-.63-1.25-.83-.48-.2-.99-.3-1.54-.3s-1.06.1-1.54.3c-.48.2-.89.47-1.25.83-.36.35-.64.76-.84,1.24-.2.47-.3.98-.3,1.52v27.77h-7.89v-27.77c0-.54-.1-1.05-.3-1.52-.2-.47-.48-.88-.84-1.24-.36-.35-.78-.63-1.25-.83-.48-.2-.99-.3-1.54-.3s-1.06.1-1.54.3c-.48.2-.89.47-1.25.83-.36.35-.64.76-.84,1.24-.2.47-.3.98-.3,1.52v27.77h-7.89v-27.77c0-1.61.31-3.12.92-4.54.62-1.42,1.46-2.66,2.53-3.72,1.07-1.06,2.33-1.89,3.77-2.49,1.44-.61,2.98-.91,4.61-.91,1.47,0,2.88.26,4.24.77,1.36.52,2.58,1.26,3.66,2.24,1.08-.98,2.3-1.72,3.64-2.24,1.35-.52,2.76-.77,4.22-.77,1.63,0,3.17.3,4.61.91,1.44.6,2.69,1.44,3.77,2.49,1.07,1.06,1.91,2.3,2.53,3.72.61,1.42.92,2.93.92,4.54v27.77Z"/>
      <polygon class="cls-1" points="465.15 92.76 438.11 92.76 438.11 53.32 465.15 53.32 465.15 61.21 446 61.21 446 69.11 458.96 69.11 458.96 77 446 77 446 84.87 465.15 84.87 465.15 92.76"/>
      <path class="cls-1" d="M467.92,65.15c0-1.63.31-3.16.94-4.59.62-1.43,1.47-2.68,2.54-3.75,1.07-1.07,2.32-1.92,3.75-2.55,1.43-.62,2.96-.94,4.59-.94h18.09v7.89h-18.09c-.55,0-1.06.1-1.54.3-.48.2-.89.48-1.25.84-.36.36-.64.77-.84,1.25-.2.48-.3.99-.3,1.54s.1,1.07.3,1.55c.2.49.48.91.84,1.27.36.36.77.64,1.25.84s.99.3,1.54.3h7.89c1.63,0,3.17.31,4.61.92,1.44.62,2.7,1.46,3.77,2.53,1.07,1.07,1.91,2.33,2.53,3.77.62,1.44.92,2.98.92,4.61s-.3,3.16-.92,4.59c-.62,1.43-1.46,2.68-2.53,3.75-1.07,1.07-2.33,1.92-3.77,2.54-1.44.63-2.98.94-4.61.94h-17.52v-7.89h17.52c.55,0,1.06-.1,1.54-.3.48-.2.89-.48,1.25-.84.36-.36.64-.78.84-1.25.2-.47.3-.99.3-1.54s-.1-1.06-.3-1.54c-.2-.48-.48-.89-.84-1.25-.36-.36-.77-.64-1.25-.84-.48-.2-.99-.3-1.54-.3h-7.89c-1.63,0-3.16-.31-4.59-.94-1.43-.62-2.68-1.47-3.75-2.54-1.07-1.07-1.92-2.33-2.54-3.77-.63-1.44-.94-2.97-.94-4.61"/>
      <path class="cls-1" d="M536.12,88.03c-1.83,1.52-3.89,2.69-6.16,3.51-2.27.81-4.63,1.22-7.07,1.22-1.87,0-3.67-.23-5.4-.7-1.73-.47-3.36-1.13-4.87-1.99-1.51-.86-2.89-1.89-4.14-3.09-1.25-1.2-2.31-2.54-3.2-4-.89-1.46-1.58-3.03-2.06-4.7-.48-1.67-.73-3.41-.73-5.22s.24-3.55.73-5.23c.49-1.68,1.17-3.25,2.06-4.71.89-1.46,1.96-2.79,3.2-4,1.25-1.2,2.63-2.24,4.14-3.09,1.51-.86,3.13-1.52,4.87-1.99,1.73-.47,3.53-.7,5.4-.7,2.44,0,4.8.4,7.07,1.21,2.27.8,4.33,1.98,6.16,3.52l-4.18,6.64c-1.15-1.2-2.52-2.13-4.1-2.78-1.58-.65-3.23-.97-4.95-.97s-3.37.32-4.9.96c-1.52.64-2.85,1.5-3.99,2.59-1.14,1.09-2.04,2.37-2.7,3.85-.66,1.48-.99,3.05-.99,4.71s.33,3.23.99,4.69c.66,1.46,1.56,2.74,2.7,3.84,1.14,1.1,2.47,1.97,3.99,2.6,1.52.64,3.15.96,4.9.96s3.37-.32,4.95-.97c1.58-.64,2.94-1.57,4.1-2.77l4.18,6.64Z"/>
      <polygon class="cls-1" points="547.54 92.76 539.65 92.76 539.65 53.32 547.54 53.32 547.54 73.04 562.23 53.32 571.19 53.32 558.73 69.96 571.19 92.76 562.23 92.76 553.56 76.81 547.54 84.87 547.54 92.76"/>
      <rect x="352.89" y="110.64" width="109.15" height="10.79"/>
      <rect class="cls-1" x="462.04" y="110.64" width="109.15" height="10.79"/>
    </g>
    <g>
      <g>
        <path d="M37.04,39.89h-7.39V13.42c0-.52-.1-1-.3-1.45s-.47-.84-.8-1.18c-.34-.34-.73-.6-1.18-.79-.45-.19-.93-.28-1.45-.28s-1,.09-1.45.28c-.45.19-.84.45-1.18.79s-.6.73-.79,1.18c-.19.45-.28.93-.28,1.45v26.47h-7.42V13.42c0-.52-.09-1-.28-1.45-.19-.45-.45-.84-.79-1.18-.34-.34-.73-.6-1.18-.79-.45-.19-.93-.28-1.45-.28s-1,.09-1.45.28c-.45.19-.84.45-1.18.79s-.6.73-.79,1.18c-.19.45-.28.93-.28,1.45v26.47H0V13.42c0-1.53.29-2.98.87-4.33.58-1.35,1.37-2.53,2.38-3.54s2.19-1.8,3.54-2.38c1.35-.58,2.8-.87,4.33-.87,1.38,0,2.7.25,3.98.74,1.27.49,2.42,1.2,3.44,2.13,1.02-.93,2.16-1.64,3.42-2.13,1.27-.49,2.59-.74,3.97-.74,1.53,0,2.98.29,4.33.87,1.35.58,2.53,1.37,3.54,2.38,1.01,1.01,1.8,2.19,2.38,3.54.58,1.35.87,2.8.87,4.33v26.47Z"/>
        <path d="M49.27,50.44v-7.11l3.93.05c.69,0,1.35-.11,1.99-.34.64-.22,1.23-.53,1.77-.93s1.02-.87,1.43-1.41c.41-.54.75-1.13,1.01-1.77-.78.33-1.56.66-2.36.98-.8.33-1.61.49-2.42.49-1.71,0-3.31-.3-4.81-.9-1.5-.6-2.81-1.46-3.94-2.57-1.13-1.11-2.02-2.46-2.66-4.06-.65-1.59-.97-3.38-.97-5.36v-15.3h7.03v15.3c0,.98.14,1.84.43,2.57.28.73.67,1.34,1.15,1.84.48.49,1.05.86,1.69,1.1.65.24,1.34.36,2.08.36s1.41-.17,2.06-.5c.65-.34,1.21-.78,1.69-1.33.48-.55.86-1.18,1.14-1.87.28-.7.41-1.42.41-2.16v-15.3h7.11v24.19c-.02,1.95-.4,3.77-1.14,5.48-.74,1.71-1.75,3.2-3.04,4.47-1.28,1.28-2.78,2.28-4.48,3.02-1.71.74-3.53,1.11-5.48,1.11l-3.62-.05Z"/>
        <path d="M106.21,2.84l-12.17,37.07h-7.42L74.49,2.84h8.43l7.39,24.74,7.42-24.74h8.48Z"/>
        <path d="M117.33,4.7c0,.66-.12,1.27-.37,1.84-.25.57-.59,1.06-1.02,1.49-.43.42-.93.76-1.51,1.01-.58.25-1.19.37-1.85.37s-1.27-.12-1.85-.37c-.58-.25-1.08-.59-1.5-1.01-.42-.42-.76-.92-1.01-1.49-.25-.57-.37-1.18-.37-1.84s.12-1.24.37-1.82c.25-.58.59-1.08,1.01-1.5.42-.42.92-.76,1.5-1.01.58-.25,1.19-.38,1.85-.38s1.27.13,1.85.38c.58.25,1.08.59,1.51,1.01.43.42.77.92,1.02,1.5.25.58.37,1.19.37,1.82ZM116.11,39.91h-7.11V12.23h7.11v27.68Z"/>
        <path d="M128.54,39.91h-7.06V12.23h1.71l2.33,3.28c1.14-1.03,2.43-1.83,3.88-2.39,1.45-.56,2.95-.84,4.5-.84h6.23v7.03h-6.23c-.74,0-1.44.14-2.09.41-.65.28-1.22.66-1.71,1.14s-.86,1.05-1.14,1.71c-.28.66-.41,1.35-.41,2.09v15.25Z"/>
        <path d="M157.29,39.91c-1.71,0-3.31-.32-4.81-.97-1.5-.65-2.81-1.53-3.94-2.66-1.13-1.13-2.02-2.44-2.66-3.94-.65-1.5-.97-3.1-.97-4.81v-8.22h-3.44v-7.03h3.44V1.22h7.03v11.06h10.7v7.03h-10.7v8.22c0,.74.14,1.43.41,2.08.28.65.66,1.21,1.14,1.69.48.48,1.05.87,1.71,1.15.66.28,1.35.43,2.09.43h5.35v7.03h-5.35Z"/>
        <path d="M186.93,36.68c-.57.52-1.18,1-1.82,1.46s-1.32.85-2.03,1.19c-.71.34-1.43.6-2.18.8-.75.2-1.51.3-2.29.3-1.71,0-3.31-.3-4.81-.9-1.5-.6-2.81-1.46-3.94-2.57-1.13-1.11-2.02-2.46-2.66-4.06-.65-1.59-.97-3.38-.97-5.36v-15.3h7.03v15.3c0,.93.14,1.76.43,2.49.28.73.67,1.35,1.15,1.85.48.5,1.05.88,1.69,1.14.65.26,1.34.39,2.08.39s1.41-.17,2.06-.5c.65-.34,1.21-.78,1.69-1.33.48-.55.86-1.18,1.14-1.87.28-.7.41-1.42.41-2.16v-15.3h7.06v27.68h-1.71l-2.33-3.23Z"/>
        <path d="M223.15,39.91h-1.71l-2.74-3.8c-.67.6-1.38,1.17-2.13,1.69-.75.53-1.54.98-2.36,1.37-.83.39-1.68.69-2.55.92-.87.22-1.75.34-2.65.34-1.95,0-3.78-.33-5.49-.98-1.71-.65-3.21-1.61-4.5-2.86-1.28-1.25-2.3-2.78-3.04-4.59-.74-1.81-1.11-3.87-1.11-6.18,0-2.15.37-4.13,1.11-5.93.74-1.8,1.75-3.35,3.04-4.64,1.28-1.29,2.78-2.3,4.5-3.01s3.55-1.07,5.49-1.07c.9,0,1.78.11,2.66.34.88.22,1.73.54,2.56.93.83.4,1.62.86,2.37,1.4.75.53,1.45,1.11,2.11,1.73l2.74-3.28h1.71v27.63ZM216.04,25.82c0-.97-.19-1.9-.56-2.8-.37-.9-.87-1.71-1.51-2.4-.64-.7-1.38-1.26-2.24-1.68-.85-.42-1.76-.63-2.73-.63s-1.87.16-2.73.49-1.59.81-2.22,1.45c-.63.64-1.12,1.43-1.49,2.36-.36.94-.54,2.01-.54,3.22s.18,2.28.54,3.22c.36.94.86,1.73,1.49,2.36.63.64,1.37,1.12,2.22,1.45.85.33,1.76.49,2.73.49s1.87-.21,2.73-.63c.85-.42,1.6-.98,2.24-1.68.64-.7,1.14-1.5,1.51-2.4.37-.9.56-1.84.56-2.8Z"/>
        <path d="M235.63,39.91h-7.11V1.22h7.11v38.69Z"/>
        <path class="cls-1" d="M18.53,92.76h-7.39v-29.65H0v-7.42h29.65v7.42h-11.11v29.65Z"/>
        <path class="cls-1" d="M39.88,92.76h-7.06v-38.69h7.06v12.23c.84-.64,1.71-1.09,2.61-1.36.9-.27,1.81-.4,2.74-.4,1.71,0,3.31.32,4.81.97,1.5.65,2.8,1.53,3.92,2.66,1.11,1.13,1.99,2.45,2.64,3.96.65,1.51.97,3.11.97,4.82v15.82h-7.11v-15.82h.05c0-.72-.14-1.41-.41-2.05-.28-.65-.66-1.21-1.14-1.69-.48-.48-1.04-.86-1.68-1.14-.64-.28-1.32-.41-2.04-.41s-1.44.14-2.09.41c-.65.28-1.22.66-1.71,1.14-.48.48-.86,1.05-1.14,1.69-.28.65-.41,1.33-.41,2.05v15.82Z"/>
        <path class="cls-1" d="M73.59,85.99c.28.09.55.14.83.17.28.03.55.04.83.04.69,0,1.35-.09,1.99-.28s1.24-.46,1.8-.81c.56-.35,1.06-.78,1.5-1.29.44-.51.8-1.07,1.07-1.69l5.17,5.2c-.65.93-1.41,1.77-2.26,2.51-.85.74-1.77,1.37-2.77,1.89-.99.52-2.03.91-3.13,1.18-1.09.27-2.22.4-3.37.4-1.95,0-3.78-.36-5.49-1.09-1.71-.72-3.21-1.73-4.5-3.02-1.28-1.29-2.3-2.83-3.04-4.61-.74-1.78-1.11-3.74-1.11-5.88s.37-4.19,1.11-6c.74-1.81,1.75-3.35,3.04-4.63,1.28-1.27,2.78-2.27,4.5-2.97s3.55-1.06,5.49-1.06c1.15,0,2.28.14,3.39.41,1.1.28,2.15.67,3.14,1.19.99.52,1.92,1.15,2.78,1.9.86.75,1.62,1.59,2.28,2.52l-13.23,15.95ZM77.21,71.43c-.33-.12-.65-.2-.97-.23-.32-.03-.65-.05-1-.05-.97,0-1.87.18-2.73.53-.85.35-1.59.86-2.22,1.51-.63.65-1.12,1.44-1.49,2.36-.36.92-.54,1.96-.54,3.12,0,.26.01.55.04.88.03.33.07.66.13,1,.06.34.13.66.22.97s.2.59.34.83l8.22-10.91Z"/>
        <path class="cls-1" d="M97.42,92.76h-7.06v-27.68h1.71l2.33,3.28c1.14-1.03,2.43-1.83,3.88-2.39,1.45-.56,2.95-.84,4.5-.84h6.23v7.03h-6.23c-.74,0-1.44.14-2.09.41-.65.28-1.22.66-1.71,1.14s-.86,1.05-1.14,1.71c-.28.66-.41,1.35-.41,2.09v15.25Z"/>
        <path class="cls-1" d="M138.57,92.76h-1.71l-2.74-3.8c-.67.6-1.38,1.17-2.13,1.69-.75.53-1.54.98-2.36,1.37-.83.39-1.68.69-2.55.92-.87.22-1.75.34-2.65.34-1.95,0-3.78-.33-5.49-.98s-3.21-1.61-4.5-2.86c-1.28-1.25-2.3-2.78-3.04-4.59-.74-1.81-1.11-3.87-1.11-6.18,0-2.15.37-4.13,1.11-5.93.74-1.8,1.75-3.35,3.04-4.64,1.28-1.29,2.78-2.3,4.5-3.01s3.55-1.07,5.49-1.07c.9,0,1.78.11,2.66.34.88.22,1.73.54,2.56.93.83.4,1.62.86,2.37,1.4.75.53,1.45,1.11,2.11,1.73l2.74-3.28h1.71v27.63ZM131.46,78.67c0-.97-.19-1.9-.56-2.8-.37-.9-.87-1.71-1.51-2.4-.64-.7-1.38-1.26-2.24-1.68-.85-.42-1.76-.63-2.73-.63s-1.87.16-2.73.49-1.59.81-2.22,1.45c-.63.64-1.12,1.43-1.49,2.36-.36.94-.54,2.01-.54,3.22s.18,2.28.54,3.22c.36.94.86,1.73,1.49,2.36.63.64,1.37,1.12,2.22,1.45.85.33,1.76.49,2.73.49s1.87-.21,2.73-.63c.85-.42,1.6-.98,2.24-1.68.64-.7,1.14-1.5,1.51-2.4.37-.9.56-1.84.56-2.8Z"/>
        <path class="cls-1" d="M151.06,103.3h-7.11v-38.23h1.71l2.82,3.33c.64-.6,1.33-1.17,2.09-1.71s1.55-1,2.37-1.38c.82-.39,1.67-.69,2.55-.92.88-.22,1.77-.34,2.66-.34,1.95,0,3.78.35,5.49,1.05,1.71.7,3.21,1.69,4.5,2.96,1.28,1.28,2.3,2.81,3.04,4.61.74,1.8,1.11,3.8,1.11,5.98s-.37,4.32-1.11,6.14c-.74,1.82-1.75,3.36-3.04,4.63-1.28,1.27-2.78,2.24-4.5,2.91-1.71.67-3.55,1.01-5.49,1.01-.62,0-1.24-.07-1.85-.21-.61-.14-1.21-.32-1.81-.56-.6-.23-1.18-.49-1.76-.79-.58-.29-1.13-.59-1.67-.9v12.41ZM165.2,78.67c0-1.17-.19-2.22-.56-3.15-.37-.93-.87-1.72-1.51-2.37-.64-.65-1.39-1.14-2.25-1.49-.86-.34-1.77-.52-2.74-.52s-1.87.17-2.73.52c-.85.35-1.6.84-2.24,1.49-.64.65-1.14,1.44-1.51,2.37-.37.93-.56,1.98-.56,3.15s.19,2.15.56,3.08c.37.93.87,1.72,1.51,2.38.64.66,1.38,1.16,2.24,1.52.85.36,1.76.54,2.73.54s1.88-.18,2.74-.54c.86-.36,1.61-.87,2.25-1.52.64-.65,1.14-1.45,1.51-2.38.37-.93.56-1.96.56-3.08Z"/>
        <path class="cls-1" d="M184.51,57.55c0,.66-.12,1.27-.37,1.84-.25.57-.59,1.06-1.02,1.49-.43.42-.93.76-1.51,1.01-.58.25-1.19.37-1.85.37s-1.27-.12-1.85-.37c-.58-.25-1.08-.59-1.5-1.01-.42-.42-.76-.92-1.01-1.49-.25-.57-.37-1.18-.37-1.84s.12-1.24.37-1.82c.25-.58.59-1.08,1.01-1.5.42-.42.92-.76,1.5-1.01.58-.25,1.19-.38,1.85-.38s1.27.13,1.85.38c.58.25,1.08.59,1.51,1.01.43.42.77.92,1.02,1.5.25.58.37,1.19.37,1.82ZM183.29,92.76h-7.11v-27.68h7.11v27.68Z"/>
        <path class="cls-1" d="M203.87,92.76h-16.13v-7.03h16.13c.48,0,.9-.17,1.24-.52.34-.35.52-.76.52-1.24s-.17-.83-.52-.98c-.35-.16-.76-.23-1.24-.23h-7.34c-1.22,0-2.37-.23-3.44-.7-1.07-.47-2-1.1-2.79-1.9-.79-.8-1.42-1.74-1.87-2.8-.46-1.07-.68-2.21-.68-3.44s.23-2.37.68-3.44c.46-1.07,1.08-2,1.87-2.79.79-.79,1.72-1.42,2.79-1.87,1.07-.46,2.21-.68,3.44-.68h14.29v7.03h-14.29c-.48,0-.9.17-1.24.52-.34.35-.52.76-.52,1.24s.17.93.52,1.28c.35.35.76.53,1.24.53h7.34c1.21,0,2.34.2,3.41.61,1.07.41,2,.97,2.79,1.69.79.72,1.42,1.59,1.89,2.61.47,1.02.7,2.13.7,3.33s-.23,2.36-.7,3.43c-.47,1.06-1.09,1.99-1.89,2.79-.79.8-1.72,1.43-2.79,1.89-1.07.46-2.21.68-3.41.68Z"/>
        <path class="cls-1" d="M230.28,92.76c-1.71,0-3.31-.32-4.81-.97-1.5-.65-2.81-1.53-3.94-2.66-1.13-1.13-2.02-2.44-2.66-3.94-.65-1.5-.97-3.1-.97-4.81v-8.22h-3.44v-7.03h3.44v-11.06h7.03v11.06h10.7v7.03h-10.7v8.22c0,.74.14,1.43.41,2.08.28.65.66,1.21,1.14,1.69.48.48,1.05.87,1.71,1.15.66.28,1.35.43,2.09.43h5.35v7.03h-5.35Z"/>
      </g>
      <rect x="2.5" y="110.81" width="116.57" height="10.62"/>
      <rect class="cls-1" x="119.07" y="110.81" width="116.57" height="10.62"/>
    </g>
    <line class="cls-2" x1="294.26" y1="0" x2="294.26" y2="121.43"/>
  </g>
</svg>